<?xml version="1.0" encoding="utf-8"?>
<!-- Generator: Adobe Illustrator 16.0.0, SVG Export Plug-In . SVG Version: 6.00 Build 0)  -->
<!DOCTYPE svg PUBLIC "-//W3C//DTD SVG 1.1//EN" "http://www.w3.org/Graphics/SVG/1.1/DTD/svg11.dtd">
<svg version="1.1" id="Layer_1" xmlns="http://www.w3.org/2000/svg" xmlns:xlink="http://www.w3.org/1999/xlink" x="0px" y="0px"
	 width="186px" height="113px" viewBox="0 0 186 113" enable-background="new 0 0 186 113" xml:space="preserve">
<g>
	<g>
		<defs>
			<rect id="SVGID_1_" x="0.084" y="-1.232" width="186.324" height="95.31"/>
		</defs>
		<clipPath id="SVGID_2_">
			<use xlink:href="#SVGID_1_"  overflow="visible"/>
		</clipPath>
	</g>
	<g>
		<defs>
			<rect id="SVGID_3_" x="0.084" y="-1.232" width="186.324" height="95.31"/>
		</defs>
		<clipPath id="SVGID_4_">
			<use xlink:href="#SVGID_3_"  overflow="visible"/>
		</clipPath>
		<path clip-path="url(#SVGID_4_)" fill="#6D6E70" d="M13.092,26.856h1.348l-6.925-16H7.003l-6.919,16h1.348l2.343-5.527h6.969
			L13.092,26.856z M4.22,20.26l3.042-7.196l3.042,7.196H4.22z"/>
		<path clip-path="url(#SVGID_4_)" fill="#6D6E70" d="M18.955,27.068c1.438,0,2.624-0.605,3.62-1.833v1.622h1.165V16.383h-1.165
			v7.432c-0.878,1.464-2.065,2.183-3.504,2.183c-1.81,0-2.669-1.229-2.669-3.74v-5.875H15.24v6.434
			C15.24,25.557,16.584,27.068,18.955,27.068"/>
		<path clip-path="url(#SVGID_4_)" fill="#6D6E70" d="M32.317,24.095c0-1.605-0.908-2.276-2.767-2.928
			c-1.737-0.604-2.598-1.113-2.598-2.16c0-1.043,0.882-1.79,2.136-1.79c0.907,0,1.88,0.35,2.926,1.024v-1.208
			c-1.001-0.581-1.929-0.884-2.859-0.884c-1.949,0-3.317,1.183-3.317,2.878c0,1.327,0.762,2.276,2.32,2.883
			c1.742,0.697,2.949,0.837,2.949,2.297c0,1.116-0.813,1.79-2.157,1.79c-1.071,0-2.092-0.348-3.136-1.045v1.207
			c0.974,0.625,1.948,0.931,3.04,0.931C31.041,27.091,32.317,25.93,32.317,24.095"/>
		<path clip-path="url(#SVGID_4_)" fill="#6D6E70" d="M35.173,24.255c0,1.979,0.558,2.812,2.37,2.812
			c0.629,0,1.254-0.14,1.905-0.444v-1.136c-0.65,0.35-1.208,0.535-1.742,0.535c-1.14,0-1.323-0.511-1.323-1.743v-6.922h2.81v-0.975
			h-2.81V12.97h-0.281l-0.882,1.019v2.394h-2.277v0.975h2.23V24.255z"/>
		<path clip-path="url(#SVGID_4_)" fill="#6D6E70" d="M41.935,20.239c1.134-1.904,2.061-2.882,3.063-2.882
			c0.515,0,1.023,0.257,1.626,0.742l0.629-1.114c-0.606-0.51-1.185-0.787-1.859-0.787c-1.251,0-2.253,0.928-3.459,2.762v-2.577
			h-1.159v10.473h1.159V20.239z"/>
		<path clip-path="url(#SVGID_4_)" fill="#6D6E70" d="M47.708,24.396c0,1.58,1.156,2.693,2.901,2.693
			c1.159,0,2.113-0.416,3.205-1.251c0.045,0.859,0.324,1.23,0.997,1.23c0.444,0,1.023-0.328,1.696-0.953v-1.067
			c-0.555,0.486-0.858,0.812-1.186,0.812c-0.253,0-0.369-0.209-0.369-0.674v-5.483c0-2.437-0.955-3.554-3.415-3.554
			c-1.092,0-2.158,0.398-3.294,1.166v1.136c1.136-0.836,2.135-1.278,3.201-1.278c1.651,0,2.348,0.697,2.348,2.253v1.118
			C49.796,20.703,47.708,22.122,47.708,24.396 M53.792,24.746c-1.047,0.879-1.95,1.343-2.858,1.343c-1.277,0-2.045-0.67-2.045-1.739
			c0-1.628,1.746-2.836,4.903-2.881V24.746z"/>
		<rect x="57.965" y="10.995" clip-path="url(#SVGID_4_)" fill="#6D6E70" width="1.185" height="15.861"/>
		<rect x="61.825" y="16.382" clip-path="url(#SVGID_4_)" fill="#6D6E70" width="1.185" height="10.474"/>
		<rect x="61.825" y="10.995" clip-path="url(#SVGID_4_)" fill="#6D6E70" width="1.185" height="1.926"/>
		<path clip-path="url(#SVGID_4_)" fill="#6D6E70" d="M64.927,24.396c0,1.58,1.158,2.693,2.899,2.693
			c1.163,0,2.117-0.416,3.209-1.251c0.047,0.859,0.323,1.23,0.997,1.23c0.44,0,1.022-0.328,1.696-0.953v-1.067
			c-0.558,0.486-0.857,0.812-1.185,0.812c-0.256,0-0.371-0.209-0.371-0.674v-5.483c0-2.437-0.953-3.554-3.414-3.554
			c-1.092,0-2.162,0.398-3.301,1.166v1.136c1.139-0.836,2.137-1.278,3.208-1.278c1.651,0,2.346,0.697,2.346,2.253v1.118
			C67.012,20.703,64.927,22.122,64.927,24.396 M71.011,24.746c-1.046,0.879-1.954,1.343-2.857,1.343
			c-1.277,0-2.046-0.67-2.046-1.739c0-1.628,1.743-2.836,4.903-2.881V24.746z"/>
		<path clip-path="url(#SVGID_4_)" fill="#6D6E70" d="M82.487,21.029v5.827h1.166v-6.385c0-2.742-1.349-4.272-3.715-4.272
			c-1.441,0-2.627,0.626-3.623,1.857v-1.672H75.15v10.473h1.165v-7.383c0.879-1.463,2.065-2.208,3.503-2.208
			C81.632,17.266,82.487,18.52,82.487,21.029"/>
		<path clip-path="url(#SVGID_4_)" fill="#0087B1" d="M23.812,38.426c0-2.628-1.185-5.02-3.159-6.482
			c-1.49-1.092-3.183-1.441-5.391-1.441H9.758v15.862h5.504c2.229,0,3.949-0.391,5.391-1.464
			C22.626,43.44,23.812,41.048,23.812,38.426 M19.583,44.182c-1.138,0.766-2.648,1.069-4.648,1.069h-3.83v-13.61h3.83
			c2,0,3.51,0.302,4.648,1.066c1.764,1.188,2.833,3.321,2.833,5.739C22.417,40.862,21.348,42.998,19.583,44.182"/>
		<rect x="26.321" y="30.503" clip-path="url(#SVGID_4_)" fill="#0087B1" width="1.185" height="1.929"/>
		<rect x="26.321" y="35.892" clip-path="url(#SVGID_4_)" fill="#0087B1" width="1.185" height="10.473"/>
		<path clip-path="url(#SVGID_4_)" fill="#0087B1" d="M29.421,43.902c0,1.581,1.159,2.696,2.902,2.696
			c1.159,0,2.114-0.42,3.204-1.254c0.048,0.86,0.325,1.232,1.001,1.232c0.442,0,1.021-0.327,1.693-0.956v-1.067
			c-0.558,0.49-0.857,0.815-1.184,0.815c-0.256,0-0.373-0.209-0.373-0.676v-5.48c0-2.44-0.95-3.556-3.413-3.556
			c-1.092,0-2.161,0.394-3.3,1.163v1.138c1.139-0.833,2.14-1.279,3.209-1.279c1.646,0,2.346,0.699,2.346,2.254v1.116
			C31.511,40.212,29.421,41.629,29.421,43.902 M35.508,44.251c-1.045,0.883-1.953,1.347-2.857,1.347
			c-1.281,0-2.047-0.673-2.047-1.74c0-1.626,1.741-2.833,4.905-2.88V44.251z"/>
		<path clip-path="url(#SVGID_4_)" fill="#0087B1" d="M48.914,40.817c0-3.07-1.879-5.183-4.456-5.183
			c-1.438,0-2.579,0.513-3.691,1.606v-6.737h-1.115v15.26c1.251,0.531,2.393,0.812,3.53,0.812
			C46.571,46.575,48.914,44.254,48.914,40.817 M40.767,38.582c0.973-1.25,2.066-1.855,3.294-1.855c1.999,0,3.532,1.671,3.532,4.159
			c0,2.693-1.764,4.526-4.273,4.526c-1.043,0-1.907-0.278-2.553-0.835V38.582z"/>
		<path clip-path="url(#SVGID_4_)" fill="#0087B1" d="M59.746,40.748v-0.051c0-3.064-1.856-5.014-4.529-5.014
			c-2.903,0-4.876,2.088-4.876,5.271c0,3.414,2.068,5.642,5.202,5.642c1.396,0,2.67-0.464,3.996-1.39v-1.278
			c-1.347,1.02-2.58,1.533-4.016,1.533c-2.277,0-3.951-1.792-3.951-4.603v-0.111H59.746z M55.124,36.682
			c1.673,0,3.001,1.184,3.252,3.062h-6.664C51.991,37.891,53.428,36.682,55.124,36.682"/>
		<path clip-path="url(#SVGID_4_)" fill="#0087B1" d="M62.219,43.767c0,1.971,0.561,2.811,2.371,2.811
			c0.624,0,1.255-0.14,1.905-0.444v-1.138c-0.649,0.35-1.209,0.535-1.741,0.535c-1.138,0-1.326-0.512-1.326-1.739v-6.923h2.81
			v-0.978h-2.81v-3.413h-0.278l-0.882,1.022v2.391h-2.276v0.978h2.228V43.767z"/>
		<path clip-path="url(#SVGID_4_)" fill="#0087B1" d="M76.059,45.206v-1.278c-1.346,1.02-2.576,1.533-4.019,1.533
			c-2.274,0-3.946-1.792-3.946-4.603v-0.111h8.175v-0.051c0-3.064-1.858-5.014-4.53-5.014c-2.905,0-4.879,2.088-4.879,5.271
			c0,3.414,2.067,5.642,5.204,5.642C73.457,46.596,74.734,46.131,76.059,45.206 M71.646,36.682c1.673,0,2.994,1.184,3.252,3.062
			h-6.666C68.51,37.891,69.952,36.682,71.646,36.682"/>
		<path clip-path="url(#SVGID_4_)" fill="#0087B1" d="M84.23,43.606c0-1.605-0.904-2.28-2.763-2.933
			c-1.741-0.602-2.6-1.112-2.6-2.156c0-1.045,0.878-1.79,2.135-1.79c0.908,0,1.884,0.348,2.927,1.02v-1.208
			c-0.997-0.575-1.928-0.88-2.857-0.88c-1.952,0-3.321,1.186-3.321,2.881c0,1.322,0.768,2.278,2.324,2.882
			c1.743,0.695,2.948,0.834,2.948,2.296c0,1.116-0.813,1.788-2.16,1.788c-1.068,0-2.089-0.345-3.132-1.044v1.209
			c0.973,0.624,1.948,0.925,3.038,0.925C82.954,46.596,84.23,45.437,84.23,43.606"/>
		<path clip-path="url(#SVGID_4_)" fill="#0087B1" d="M23.878,52.427c-1.554,1.509-2.438,3.601-2.438,5.735
			c0,2.811,1.347,5.343,3.668,6.854c1.419,0.928,3.065,1.415,4.905,1.415c1.83,0,3.667-0.487,5.549-1.465v-1.346
			c-2.067,1.092-3.879,1.673-5.595,1.673c-2.025,0-3.834-0.744-5.111-2.067c-1.279-1.321-2.024-3.135-2.024-5.016
			c0-2.418,1.14-4.553,3.114-5.875c1.161-0.769,2.509-1.187,4.022-1.187c1.74,0,3.55,0.579,5.595,1.671v-1.322
			c-1.925-0.973-3.764-1.487-5.549-1.487C27.617,50.011,25.505,50.848,23.878,52.427"/>
		<path clip-path="url(#SVGID_4_)" fill="#0087B1" d="M41.95,55.446c-3.067,0-5.462,2.441-5.462,5.458
			c0,3.063,2.416,5.459,5.462,5.459c1.46,0,2.784-0.534,3.833-1.581c1.019-1.021,1.625-2.435,1.625-3.878
			C47.408,57.863,44.967,55.446,41.95,55.446 M41.95,65.294c-2.28,0-4.183-1.902-4.183-4.367c0-2.462,1.856-4.388,4.183-4.388
			c2.297,0,4.157,1.926,4.157,4.388C46.107,63.368,44.248,65.294,41.95,65.294"/>
		<path clip-path="url(#SVGID_4_)" fill="#0087B1" d="M56.189,63.11c-0.878,1.465-2.065,2.184-3.506,2.184
			c-1.809,0-2.668-1.231-2.668-3.74V55.68h-1.162v6.431c0,2.745,1.348,4.253,3.716,4.253c1.437,0,2.622-0.604,3.62-1.837v1.626
			h1.165V55.68h-1.165V63.11z"/>
		<path clip-path="url(#SVGID_4_)" fill="#0087B1" d="M63.584,55.493c-1.44,0-2.625,0.626-3.625,1.858v-1.675h-1.161v10.476h1.161
			V58.77c0.887-1.465,2.066-2.209,3.508-2.209c1.812,0,2.67,1.254,2.67,3.762v5.83H67.3v-6.386
			C67.3,57.025,65.955,55.493,63.584,55.493"/>
		<path clip-path="url(#SVGID_4_)" fill="#0087B1" d="M70.088,60.927c0-2.46,1.856-4.387,4.178-4.387
			c0.906,0,1.696,0.207,2.509,0.673V55.91c-0.764-0.301-1.532-0.464-2.346-0.464c-3.299,0-5.62,2.441-5.62,5.458
			c0,3.184,2.3,5.459,5.525,5.459c0.932,0,1.792-0.211,2.649-0.626v-1.307c-0.951,0.586-1.857,0.863-2.718,0.863
			C71.945,65.294,70.088,63.413,70.088,60.927"/>
		<rect x="78.491" y="50.291" clip-path="url(#SVGID_4_)" fill="#0087B1" width="1.187" height="1.926"/>
		<rect x="78.491" y="55.677" clip-path="url(#SVGID_4_)" fill="#0087B1" width="1.187" height="10.478"/>
		<rect x="82.348" y="50.291" clip-path="url(#SVGID_4_)" fill="#0087B1" width="1.187" height="15.863"/>
	</g>
	<g>
		<path fill="#005E9E" d="M18.577,76.044H6.544v-3.275h16.538l-12.839,39.628l-3.068-0.988L18.577,76.044z"/>
		<path fill="#005E9E" d="M24.753,86.453l1.796-13.685h12.785v3.275h-9.912l-0.84,6.398l0.527-0.004
			c2.074,0,4.042,0.396,5.907,1.188c1.864,0.793,3.428,1.841,4.695,3.144c1.265,1.304,2.312,2.907,3.138,4.81
			c0.827,1.901,1.24,3.84,1.24,5.811c0,2.678-0.661,5.171-1.981,7.478c-1.321,2.307-3.144,4.139-5.469,5.494
			c-2.325,1.356-4.844,2.035-7.556,2.035c-2.255,0-4.298-0.458-6.129-1.374l1.479-2.854c1.444,0.635,2.994,0.952,4.65,0.952
			c3.416,0,6.225-1.179,8.427-3.532c2.201-2.355,3.302-5.079,3.302-8.172c0-3.269-1.172-6.035-3.513-8.303
			c-2.344-2.267-5.082-3.4-8.215-3.4C27.641,85.714,26.196,85.961,24.753,86.453z"/>
	</g>
	<g>
		<path fill="#005E9E" d="M48.794,90.106h-1.434V77.901l-3.629-5.133l1.756,0.001l2.587,3.657l2.653-3.664l1.765,0.006l-3.698,5.108
			V90.106z"/>
		<path fill="#005E9E" d="M55.456,74.202v2.89H58.6l0.485,1.387h-3.629v10.194h3.213v1.434h-4.646V78.479H53.26l-0.462-1.387h1.225
			v-4.323h4.646v1.434H55.456z"/>
		<path fill="#005E9E" d="M61.122,78.479h-0.786l-0.462-1.387h1.248v-1.503c0-0.816,0.281-1.519,0.844-2.104
			c0.562-0.586,1.267-0.879,2.115-0.879c0.462,0,0.856,0.073,1.179,0.22c0.324,0.146,0.628,0.358,0.914,0.636
			c0.285,0.277,0.504,0.595,0.658,0.948c0.154,0.354,0.231,0.747,0.231,1.179v14.518h-1.434V78.479h-3.074v11.628h-1.433V78.479z
			 M65.629,77.092v-1.503c0-0.417-0.134-0.786-0.401-1.109c-0.268-0.324-0.654-0.485-1.159-0.485c-0.398,0-0.75,0.135-1.056,0.404
			c-0.306,0.27-0.458,0.667-0.458,1.19v1.503H65.629z"/>
		<path fill="#005E9E" d="M68.985,72.769h0.254h1.04h0.139c1.248,0,2.404,0.32,3.467,0.959c1.064,0.641,1.915,1.512,2.555,2.612
			c0.639,1.104,0.959,2.285,0.959,3.549c0,1.525-0.481,2.943-1.444,4.253c-0.963,1.31-2.154,2.15-3.572,2.52l4.253,3.445
			l-2.071-0.013l-4.147-3.299v3.312h-1.434V72.769z M70.419,85.574c0.786,0,1.502-0.142,2.149-0.427
			c0.647-0.285,1.375-0.853,2.185-1.699c0.809-0.848,1.213-2.034,1.213-3.56c0-1.573-0.408-2.771-1.225-3.595
			s-1.549-1.379-2.196-1.664c-0.647-0.285-1.356-0.428-2.126-0.428V85.574z"/>
		<path fill="#005E9E" d="M80.25,90.106h-2.312v-1.434h2.312c0.662,0,1.221-0.239,1.676-0.718c0.454-0.477,0.682-1.023,0.682-1.641
			c0-0.354-0.046-0.647-0.138-0.878l-3.653-7.929c-0.185-0.416-0.277-0.879-0.277-1.388c0-0.909,0.323-1.694,0.971-2.357
			c0.647-0.662,1.434-0.994,2.358-0.994h1.711v1.434h-1.7c-0.505,0-0.949,0.185-1.332,0.549c-0.383,0.368-0.575,0.827-0.575,1.378
			c0,0.29,0.046,0.542,0.136,0.755l3.593,7.855c0.227,0.463,0.34,0.987,0.34,1.572c0,1.034-0.374,1.925-1.121,2.672
			C82.171,89.731,81.282,90.106,80.25,90.106z"/>
	</g>
	<g>
		<path fill="#00708E" d="M170.416,68.218c-0.929-2.27-2.2-4.366-3.747-6.224c-0.277,0.951-0.507,1.921-0.687,2.905
			c0.256,1.71,0.392,3.456,0.392,5.235c0.004,1.777-0.132,3.528-0.388,5.238c0.551,3.019,1.575,5.871,2.988,8.483
			c0.062-0.049,0.121-0.099,0.183-0.153c1.095-3.143,1.818-6.466,2.123-9.902C171.118,71.898,170.827,70.034,170.416,68.218z"/>
		<path fill="#0088B7" d="M185.588,42.573c-1.554,0.5-3.053,1.128-4.476,1.868c-0.515,0.268-1.021,0.552-1.517,0.85
			c-0.496,0.297-0.981,0.61-1.459,0.937c-1.41,0.963-2.729,2.047-3.943,3.237c-2.024,1.983-3.759,4.263-5.133,6.765
			c4.596,4.531,7.713,10.554,8.564,17.282c0.026,0.217,0.052,0.436,0.074,0.653c1.84-2.713,3.406-5.625,4.66-8.701
			c0.377-2.388,1.044-4.681,1.958-6.845c0.155-0.364,0.316-0.722,0.482-1.077c0,0.002-0.001,0.005-0.002,0.008
			c0.002-0.003,0.004-0.006,0.004-0.008c0.53-2.481,0.866-5.033,0.992-7.645c0.035-0.773,0.057-1.553,0.057-2.333
			C185.851,45.877,185.757,44.211,185.588,42.573z"/>
		<path fill="#00B7EB" d="M184.317,58.618c-0.914,2.164-1.581,4.457-1.958,6.845c0.848-2.075,1.547-4.23,2.099-6.443
			c0.12-0.483,0.233-0.977,0.34-1.471C184.632,57.901,184.472,58.258,184.317,58.618z"/>
		<path fill="#008585" d="M183.591,33.087c-2.738,2.069-5.24,4.431-7.46,7.045c-0.201,0.236-0.399,0.476-0.596,0.716
			c-0.239,0.294-0.477,0.591-0.709,0.892h-0.001c0,0,0,0,0-0.001c0,0.001,0,0.001-0.001,0.002c-2.817,3.634-5.106,7.7-6.752,12.076
			c0.334,0.775,0.646,1.56,0.933,2.357c0.029,0.079,0.033,0.095,0.033,0.095h0.002c1.373-2.504,3.129-4.822,5.153-6.805
			c1.215-1.189,2.533-2.274,3.943-3.237c0.477-0.327,0.963-0.64,1.459-0.937c0.495-0.298,1.002-0.582,1.517-0.85
			c1.423-0.739,2.922-1.367,4.476-1.868C185.242,39.3,184.565,36.127,183.591,33.087z"/>
		<linearGradient id="SVGID_5_" gradientUnits="userSpaceOnUse" x1="142.4287" y1="52.1709" x2="176.768" y2="41.9111">
			<stop  offset="0" style="stop-color:#FFFFFF"/>
			<stop  offset="1" style="stop-color:#00817D"/>
		</linearGradient>
		<path fill="url(#SVGID_5_)" d="M183.078,31.572c-0.095-0.254-0.187-0.512-0.282-0.763c-0.166,0.045-0.337,0.095-0.503,0.145
			c-0.011,0.002-0.022,0.005-0.033,0.009l0,0l0,0c-4.217,1.241-8.152,3.144-11.684,5.588c-0.105,0.075-0.215,0.152-0.323,0.231
			c0,0,0-0.001-0.001-0.001c-2.645,1.868-5.058,4.048-7.187,6.477c0.14,0.789,0.243,1.592,0.308,2.405
			c1.861,2.517,3.442,5.248,4.699,8.154c1.646-4.376,3.935-8.442,6.752-12.076l-0.006-0.009c0.002,0.003,0.005,0.005,0.007,0.007
			c0.233-0.3,0.47-0.597,0.71-0.891c0.196-0.24,0.395-0.48,0.595-0.716c0.001,0,0.001,0,0.001,0c2.22-2.614,4.722-4.977,7.46-7.045
			C183.43,32.579,183.258,32.076,183.078,31.572z"/>
		<linearGradient id="SVGID_6_" gradientUnits="userSpaceOnUse" x1="140.5537" y1="45.8848" x2="174.89" y2="35.6258">
			<stop  offset="0" style="stop-color:#FFFFFF"/>
			<stop  offset="1" style="stop-color:#00AEBF"/>
		</linearGradient>
		<path fill="url(#SVGID_6_)" d="M169.283,35.87c-0.744-0.684-1.504-1.344-2.285-1.987c-0.182,0.224-0.359,0.447-0.537,0.671
			c0-0.001,0-0.001,0-0.001s-0.001,0-0.001,0.001c-1.476,1.864-2.838,3.824-4.077,5.863c0.28,0.926,0.509,1.874,0.683,2.841
			c2.129-2.429,4.542-4.609,7.187-6.477C169.934,36.473,169.608,36.167,169.283,35.87z"/>
		<linearGradient id="SVGID_7_" gradientUnits="userSpaceOnUse" x1="145.0205" y1="60.873" x2="179.3724" y2="50.6095">
			<stop  offset="0" style="stop-color:#FFFFFF"/>
			<stop  offset="1" style="stop-color:#006A6C"/>
		</linearGradient>
		<path fill="url(#SVGID_7_)" d="M163.003,52.45c1.377,1.791,2.609,3.701,3.678,5.712c0.289-1.089,0.62-2.164,0.986-3.221
			c-1.401-1.215-2.919-2.302-4.53-3.241C163.097,51.952,163.051,52.201,163.003,52.45z"/>
		<g>
			<g>
				<linearGradient id="SVGID_8_" gradientUnits="userSpaceOnUse" x1="143.8145" y1="56.7861" x2="178.1443" y2="46.5291">
					<stop  offset="0" style="stop-color:#FFFFFF"/>
					<stop  offset="1" style="stop-color:#006E7A"/>
				</linearGradient>
				<path fill="url(#SVGID_8_)" d="M163.373,45.663c0.054,0.67,0.082,1.348,0.082,2.032c0,1.364-0.11,2.702-0.318,4.006
					c1.612,0.939,3.131,2.026,4.53,3.239c0.13-0.378,0.265-0.751,0.405-1.123C166.815,50.911,165.234,48.18,163.373,45.663z"/>
			</g>
		</g>
		<linearGradient id="SVGID_9_" gradientUnits="userSpaceOnUse" x1="145.5088" y1="62.498" x2="179.8569" y2="52.2356">
			<stop  offset="0" style="stop-color:#FFFFFF"/>
			<stop  offset="1" style="stop-color:#006A5C"/>
		</linearGradient>
		<path fill="url(#SVGID_9_)" d="M163.003,52.45c-0.119,0.626-0.263,1.244-0.428,1.854c-0.286,1.052-0.638,2.075-1.053,3.066
			c1.209,0.805,2.338,1.716,3.378,2.719c0.372,0.361,0.733,0.731,1.082,1.111c0.2-1.023,0.434-2.039,0.698-3.038
			C165.612,56.151,164.38,54.241,163.003,52.45z"/>
		<path fill="#00AECE" d="M175.573,26.731c-0.333-0.18-0.668-0.355-1.006-0.53c-2.754,2.319-5.288,4.891-7.569,7.681
			c0.781,0.643,1.541,1.304,2.285,1.987c0.325,0.297,0.65,0.603,0.969,0.912c0.109-0.078,0.219-0.155,0.324-0.23
			c3.531-2.444,7.467-4.347,11.683-5.588C180.136,29.403,177.904,27.989,175.573,26.731z"/>
		<path fill="#00B1BD" d="M182.26,30.963c0.011-0.004,0.022-0.007,0.033-0.009c0.165-0.051,0.336-0.099,0.503-0.145
			c-1.051-2.775-2.351-5.427-3.88-7.925c-1.502,1.036-2.953,2.145-4.349,3.317c0.338,0.174,0.673,0.35,1.006,0.53
			C177.904,27.989,180.136,29.403,182.26,30.963z"/>
		<path fill="#00BDD8" d="M166.998,33.883c2.281-2.791,4.813-5.362,7.569-7.681c-3.074-1.583-6.312-2.898-9.677-3.912
			c-2.561,1.585-4.986,3.37-7.255,5.331C160.972,29.396,164.106,31.499,166.998,33.883z"/>
		<linearGradient id="SVGID_10_" gradientUnits="userSpaceOnUse" x1="138.7988" y1="40.0166" x2="173.1358" y2="29.7575">
			<stop  offset="0" style="stop-color:#FFFFFF"/>
			<stop  offset="1" style="stop-color:#00B8D4"/>
		</linearGradient>
		<path fill="url(#SVGID_10_)" d="M166.998,33.883c-2.892-2.384-6.026-4.487-9.362-6.262c-0.501,0.434-0.992,0.881-1.479,1.333
			c3.051,2.9,5.394,6.539,6.743,10.628c1.099-1.74,2.286-3.42,3.56-5.028c-0.044-0.02-0.089-0.036-0.133-0.054
			c0.044,0.017,0.087,0.035,0.133,0.053C166.639,34.33,166.816,34.106,166.998,33.883z"/>
		<linearGradient id="SVGID_11_" gradientUnits="userSpaceOnUse" x1="135.3613" y1="28.5146" x2="169.7" y2="18.255">
			<stop  offset="0" style="stop-color:#FFFFFF"/>
			<stop  offset="1" style="stop-color:#00BFE8"/>
		</linearGradient>
		<path fill="url(#SVGID_11_)" d="M157.014,27.295c-6.464-3.339-13.663-5.466-21.283-6.075c-0.553,0.123-1.099,0.252-1.646,0.39
			c0.566,0.359,1.124,0.73,1.678,1.107c0.237,0.161,0.476,0.321,0.71,0.486c0.596-0.045,1.203-0.067,1.812-0.067h0.014
			c6.543,0,12.485,2.567,16.879,6.744c0.145-0.14,0.289-0.278,0.434-0.416c0.661-0.629,1.336-1.246,2.025-1.842
			C157.43,27.512,157.223,27.403,157.014,27.295z"/>
		<path fill="#30C3ED" d="M148.237,19.853c-4.295,0.003-8.483,0.474-12.507,1.368c7.621,0.609,14.819,2.736,21.283,6.075
			c0.209,0.107,0.416,0.216,0.622,0.326c2.269-1.961,4.694-3.747,7.255-5.331c-5.265-1.585-10.846-2.437-16.63-2.437H148.237z"/>
		<path fill="#84C99B" d="M152.659,2.305c-7.892,4.792-14.879,10.912-20.652,18.057c0.407,0.232,0.813,0.472,1.215,0.712l0,0
			c0.286,0.177,0.577,0.359,0.863,0.536c0.547-0.138,1.093-0.267,1.646-0.39c4.023-0.894,8.212-1.365,12.507-1.368h0.023
			c5.784,0,11.365,0.852,16.63,2.437c3.168-1.959,6.547-3.612,10.091-4.921C169.216,10.397,161.497,5.101,152.659,2.305z"/>
		<path fill="#C3DE9A" d="M132.007,20.362c5.773-7.146,12.761-13.266,20.652-18.057c-4.534-1.435-9.365-2.206-14.375-2.206h-0.013
			c-12.512,0.006-23.891,4.834-32.375,12.719c8.883,0.379,17.248,2.77,24.644,6.731C131.034,19.813,131.521,20.083,132.007,20.362z"
			/>
		<path fill="#CCE5C5" d="M130.54,19.548c-7.396-3.961-15.761-6.352-24.644-6.731c-6.839,6.363-11.805,14.709-13.965,24.12
			c10.137-9.832,23.971-15.89,39.219-15.897h0.028h0.283c0.078-0.1,0.158-0.199,0.239-0.3c0.102-0.127,0.204-0.254,0.306-0.377
			C131.521,20.083,131.034,19.813,130.54,19.548z"/>
		<path fill="#F1F9FA" d="M133.221,21.074L133.221,21.074L133.221,21.074c-0.4-0.24-0.807-0.48-1.214-0.712
			c-0.102,0.124-0.204,0.25-0.306,0.377c-0.081,0.101-0.159,0.201-0.238,0.3c-0.45,0.571-0.89,1.142-1.322,1.724
			c1.296-0.427,2.607-0.813,3.944-1.153C133.799,21.433,133.508,21.251,133.221,21.074z"/>
		<path fill="#EFF7F3" d="M110.984,33.556c5.565-4.739,12.055-8.437,19.156-10.792c0.432-0.583,0.872-1.153,1.322-1.724h-0.001
			h-0.283h-0.028c-15.248,0.007-29.082,6.065-39.219,15.897c-0.479,2.098-0.821,4.243-1.014,6.435
			c3.148-1.469,6.601-2.4,10.235-2.674c0.18-0.177,0.363-0.352,0.547-0.526C104.462,37.562,107.584,35.332,110.984,33.556z"/>
		<path fill="#CCDDEB" d="M120.532,30c-0.365,0.086-0.727,0.176-1.088,0.271c-2.965,0.788-5.799,1.897-8.459,3.285
			c-3.4,1.776-6.523,4.006-9.285,6.616c-0.184,0.174-0.367,0.349-0.547,0.526c0.332-0.026,0.667-0.044,1.005-0.059
			c0.412-0.016,0.826-0.027,1.241-0.029h0.012c0.199,0,0.396,0.003,0.593,0.007c0.291,0.006,0.579,0.017,0.867,0.03
			c2.016,0.098,3.977,0.397,5.867,0.877c0.698-0.387,1.409-0.751,2.132-1.099c0.58-0.361,1.171-0.702,1.771-1.028
			c0.236-0.127,0.473-0.253,0.711-0.376c1.327-3.543,3.454-6.699,6.163-9.243C121.187,29.848,120.859,29.923,120.532,30z"/>
		<path fill="#C3E4D8" d="M90.918,43.372c-0.012,0.128-0.026,0.264-0.037,0.393c1.627,1.167,3.165,2.449,4.603,3.832
			c1.638-2.5,3.539-4.814,5.669-6.899C97.519,40.971,94.066,41.902,90.918,43.372z"/>
		<path fill="#30C3ED" d="M104.871,40.647c-0.288-0.014-0.576-0.024-0.867-0.03c-0.196-0.003-0.394-0.007-0.594-0.007h-0.011
			c-0.415,0.001-0.829,0.013-1.241,0.029c-0.338,0.015-0.672,0.033-1.005,0.059c-2.13,2.084-4.031,4.398-5.669,6.899
			c0.767,0.741,1.509,1.512,2.217,2.312c0.423,0.47,0.828,0.953,1.225,1.44c0.205-0.248,0.413-0.494,0.622-0.737
			c3.152-3.649,6.938-6.734,11.189-9.086C108.847,41.045,106.887,40.745,104.871,40.647z"/>
		<path fill="#136B7B" d="M111.079,41.614c-0.113-0.031-0.229-0.061-0.341-0.088c-4.252,2.352-8.037,5.437-11.19,9.086
			c-0.209,0.243-0.417,0.489-0.622,0.737c0.544,0.675,1.067,1.363,1.572,2.07c0.012,0.017,0.025,0.035,0.038,0.052
			C103.103,48.76,106.723,44.701,111.079,41.614z"/>
		<path fill="#065E78" d="M108.534,59.183c1.42-1.772,3.048-3.371,4.842-4.766c-0.574-2.144-0.884-4.397-0.884-6.722
			c0-1.877,0.202-3.707,0.58-5.47c-0.653-0.227-1.317-0.431-1.991-0.612c0,0.001-0.001,0.001-0.001,0.001c-0.001,0-0.001,0-0.001,0
			c-4.356,3.089-7.977,7.145-10.543,11.859c0.207,0.29,0.409,0.583,0.608,0.879c1.393,2.075,2.601,4.283,3.603,6.604
			c0.132,0.303,0.258,0.608,0.383,0.917c0.204,0.507,0.4,1.019,0.585,1.534c0.801-1.465,1.725-2.854,2.758-4.15
			c0.005-0.006,0.01-0.013,0.015-0.02C108.502,59.219,108.519,59.2,108.534,59.183z"/>
		<path fill="#1E9EB7" d="M97.701,49.909c-0.708-0.8-1.45-1.571-2.217-2.312c-1.025,1.566-1.946,3.207-2.754,4.906
			c0.86,0.855,1.674,1.752,2.441,2.691c0.177,0.22,0.354,0.44,0.529,0.664c0.975-1.577,2.05-3.083,3.225-4.508
			C98.529,50.862,98.124,50.378,97.701,49.909z"/>
		<path fill="#105C74" d="M100.498,53.419c-0.505-0.707-1.027-1.395-1.572-2.07c-1.175,1.426-2.25,2.932-3.225,4.508
			c0.417,0.538,0.82,1.088,1.207,1.652c0.003,0.004,0.007,0.008,0.01,0.013c0.009,0.014,0.019,0.029,0.028,0.044
			c0.379,0.552,0.743,1.116,1.092,1.693c0.659-2.017,1.5-3.95,2.498-5.787C100.522,53.455,100.51,53.437,100.498,53.419z"/>
		<path fill="#1C5273" d="M105.13,61.873c-0.126-0.309-0.251-0.614-0.383-0.917c-0.001,0-0.001,0-0.002,0l0,0
			c-1.001-2.321-2.208-4.53-3.601-6.604c-0.199-0.295-0.401-0.589-0.608-0.879l0,0l0,0c-0.998,1.837-1.838,3.771-2.498,5.788
			c2.011,3.33,3.479,7.02,4.292,10.952c0,0.001,0,0.002,0,0.002l0,0l0,0c0.123,0.602,0.232,1.211,0.323,1.825
			c0.457-2.499,1.232-4.886,2.287-7.114c0.244-0.515,0.501-1.021,0.774-1.519C105.53,62.892,105.333,62.381,105.13,61.873z"/>
		<path fill="#0087B9" d="M95.172,55.194c-0.768-0.939-1.582-1.836-2.441-2.691c-0.13,0.278-0.261,0.558-0.385,0.842
			c0.665,1.446,1.274,2.924,1.822,4.435C94.48,56.909,94.814,56.047,95.172,55.194z"/>
		<path fill="#006AA1" d="M95.172,55.194c-0.357,0.854-0.691,1.715-1.005,2.585c0.055,0.156,0.109,0.312,0.165,0.467
			c0.428-0.811,0.886-1.61,1.367-2.389C95.525,55.634,95.349,55.414,95.172,55.194z"/>
		<path fill="#1E516F" d="M96.918,57.522c-0.003-0.005-0.007-0.009-0.01-0.013c-0.387-0.564-0.79-1.114-1.209-1.652
			c-0.481,0.778-0.939,1.578-1.367,2.389c0.916,2.598,1.646,5.273,2.183,8.025c0.269-2.421,0.784-4.766,1.523-7.012
			c-0.35-0.576-0.713-1.142-1.092-1.693C96.937,57.552,96.927,57.536,96.918,57.522z"/>
		<path fill="#4694CB" d="M94.167,57.779c-0.548-1.511-1.157-2.988-1.822-4.435c-0.335,0.743-0.647,1.499-0.935,2.27
			c0.341,2.001,0.808,3.961,1.394,5.871c0.164-0.396,0.336-0.793,0.516-1.179c0.319-0.697,0.656-1.383,1.012-2.06
			C94.276,58.091,94.222,57.936,94.167,57.779z"/>
		<path fill="#4E8ABC" d="M94.332,58.246c-0.356,0.677-0.693,1.362-1.012,2.06c-0.18,0.386-0.352,0.782-0.516,1.179
			c0.026,0.095,0.057,0.188,0.085,0.28c0,0,0,0,0-0.001c0,0.001,0,0.001,0,0.001c0.889,2.835,2.036,5.558,3.412,8.137
			c0.011-1.227,0.084-2.438,0.213-3.63C95.979,63.52,95.248,60.844,94.332,58.246z"/>
		<path fill="#156AA7" d="M96.515,66.271c-0.129,1.191-0.202,2.403-0.213,3.63c0.322,0.603,0.655,1.193,1.003,1.779
			c-0.057-0.586-0.123-1.167-0.198-1.746C96.947,68.701,96.751,67.479,96.515,66.271z"/>
		<path fill="#25496F" d="M102.653,72.041L102.653,72.041L102.653,72.041c-0.092-0.614-0.2-1.225-0.323-1.826l0,0l0,0
			c-0.812-3.935-2.281-7.624-4.292-10.954l0,0l0,0c-0.738,2.245-1.255,4.59-1.523,7.011c0.236,1.208,0.434,2.43,0.592,3.663
			c0.075,0.579,0.142,1.16,0.199,1.746c0,0,0,0-0.001,0l0,0c1.326,2.245,2.834,4.368,4.502,6.358
			c0.133,0.162,0.269,0.318,0.405,0.478c-0.018-0.412-0.026-0.826-0.026-1.244C102.182,75.489,102.344,73.737,102.653,72.041z"/>
		<path fill="#005E9E" d="M108.534,59.183c-0.016,0.018-0.032,0.036-0.047,0.055c-0.005,0.007-0.01,0.014-0.015,0.02
			c-1.033,1.297-1.957,2.686-2.758,4.15c0.968,2.706,1.662,5.545,2.048,8.48c0.229,1.761,0.349,3.559,0.35,5.381
			c0,2.237-0.179,4.438-0.521,6.579c2.851,2.406,5.99,4.485,9.357,6.176c-0.336-1.292-0.638-2.606-0.91-3.926
			c-0.596-2.911-1.032-5.877-1.3-8.893c-0.924-2.163-1.433-4.542-1.433-7.045c-0.004-2.499,0.506-4.88,1.425-7.04
			c0.116-1.324,0.265-2.64,0.446-3.943c-0.75-1.51-1.356-3.102-1.802-4.76C111.582,55.812,109.954,57.41,108.534,59.183z"/>
		<path fill="#095296" d="M107.763,71.888c-0.386-2.937-1.08-5.774-2.048-8.48c-0.273,0.497-0.53,1.004-0.774,1.519
			c-1.055,2.229-1.83,4.617-2.287,7.115c0.259,1.709,0.395,3.455,0.395,5.231c0,0.712-0.021,1.42-0.062,2.119
			c1.432,1.589,2.972,3.075,4.605,4.456c0.342-2.142,0.521-4.342,0.521-6.581C108.111,75.444,107.992,73.648,107.763,71.888z"/>
		<path fill="#1B4891" d="M102.653,72.041c-0.31,1.696-0.471,3.448-0.468,5.231c0,0.418,0.009,0.832,0.026,1.244
			c0.253,0.296,0.512,0.587,0.774,0.875c0.041-0.699,0.061-1.407,0.061-2.119C103.047,75.496,102.912,73.75,102.653,72.041z"/>
		<path fill="#1D8EBD" d="M114.731,63.12c-0.919,2.161-1.429,4.541-1.425,7.04c0,2.503,0.51,4.882,1.433,7.045
			c-0.207-2.322-0.311-4.675-0.314-7.054C114.425,67.783,114.53,65.437,114.731,63.12z"/>
		<linearGradient id="SVGID_12_" gradientUnits="userSpaceOnUse" x1="119.1182" y1="65.9307" x2="113.6741" y2="79.75">
			<stop  offset="0" style="stop-color:#80DEF4"/>
			<stop  offset="1" style="stop-color:#00BCE9"/>
		</linearGradient>
		<path fill="url(#SVGID_12_)" d="M116.858,59.414L116.858,59.414c-0.486-0.875-0.918-1.788-1.298-2.725
			c-0.065,0.382-0.126,0.767-0.188,1.153c-0.271,1.74-0.485,3.5-0.642,5.278c-0.201,2.316-0.307,4.663-0.307,7.031
			c0.004,2.379,0.107,4.731,0.314,7.054c1.051,2.465,2.636,4.647,4.612,6.403c-0.447-2.044-0.685-4.163-0.685-6.342
			c-0.002-2.201,0.241-4.347,0.696-6.41c0.385-1.743,0.924-3.429,1.603-5.041c0.095-0.226,0.193-0.449,0.292-0.672
			C119.526,63.467,118.037,61.538,116.858,59.414z"/>
		<path fill="#00ABE1" d="M119.352,83.608c-1.977-1.756-3.562-3.938-4.612-6.403c0.268,3.016,0.704,5.981,1.3,8.893
			c1.573,1.385,3.353,2.543,5.286,3.416c-0.145-0.317-0.282-0.638-0.416-0.961C120.253,86.969,119.727,85.317,119.352,83.608z"/>
		<linearGradient id="SVGID_13_" gradientUnits="userSpaceOnUse" x1="126.8516" y1="68.9785" x2="121.4078" y2="82.7973">
			<stop  offset="0" style="stop-color:#AFE4EF"/>
			<stop  offset="1" style="stop-color:#60C9DF"/>
		</linearGradient>
		<path fill="url(#SVGID_13_)" d="M124.341,77.26c-0.004-2.762,0.468-5.415,1.332-7.886c0.081-0.23,0.163-0.461,0.251-0.688
			c-1.694-0.992-3.263-2.182-4.666-3.541c-0.099,0.222-0.197,0.445-0.292,0.671c-0.679,1.612-1.218,3.298-1.603,5.041
			c-0.455,2.063-0.698,4.209-0.696,6.41c0,2.179,0.237,4.298,0.685,6.342c0.259,0.229,0.524,0.451,0.796,0.666
			c1.902,1.503,4.115,2.634,6.525,3.276C125.18,84.437,124.343,80.945,124.341,77.26z"/>
		<linearGradient id="SVGID_14_" gradientUnits="userSpaceOnUse" x1="130.2246" y1="70.3066" x2="124.7807" y2="84.1256">
			<stop  offset="0" style="stop-color:#E1F3F4"/>
			<stop  offset="1" style="stop-color:#9AD7D9"/>
		</linearGradient>
		<path fill="url(#SVGID_14_)" d="M125.924,68.686c-0.088,0.228-0.17,0.458-0.251,0.688c-0.864,2.471-1.336,5.124-1.332,7.886
			c0.002,3.686,0.839,7.177,2.332,10.291c0.086,0.184,0.177,0.363,0.269,0.544c0.102-0.132,0.201-0.266,0.299-0.402
			c0.136-0.183,0.269-0.369,0.399-0.556c0.029-0.04,0.058-0.082,0.086-0.124c0.99-1.42,1.856-2.933,2.586-4.52
			c0.492-1.068,0.925-2.168,1.288-3.301c0.438-1.361,0.779-2.767,1.016-4.207c0.004-0.025,0.009-0.05,0.013-0.074
			c0.019-0.117,0.037-0.237,0.055-0.355c0.008-0.058,0.019-0.115,0.026-0.173c0.016-0.105,0.029-0.209,0.044-0.313
			c0.009-0.073,0.019-0.146,0.027-0.222c0.012-0.095,0.023-0.19,0.034-0.284c0.011-0.085,0.02-0.172,0.027-0.258
			c0.01-0.086,0.02-0.173,0.027-0.26c0.009-0.098,0.018-0.195,0.026-0.293c0.007-0.077,0.015-0.153,0.021-0.232
			c0.008-0.101,0.015-0.202,0.021-0.303c0.001-0.014,0.002-0.027,0.003-0.042c0.004-0.062,0.008-0.124,0.013-0.186
			c0.011-0.179,0.021-0.357,0.028-0.537C130.462,70.896,128.086,69.95,125.924,68.686z"/>
		<path fill="#00B8E1" d="M126.672,87.551c-2.409-0.643-4.622-1.773-6.524-3.276c-0.271-0.215-0.537-0.438-0.796-0.666
			c0.375,1.709,0.901,3.36,1.558,4.944c0.134,0.323,0.271,0.644,0.416,0.961l0,0l0,0c1.076,0.485,2.201,0.888,3.364,1.193
			c0.8-0.83,1.551-1.7,2.252-2.612C126.85,87.914,126.759,87.734,126.672,87.551z"/>
		<path fill="#D7EFF5" d="M131.461,94.255c-0.905-0.894-1.743-1.86-2.498-2.885c-0.757-1.034-1.436-2.128-2.021-3.275
			c-0.701,0.912-1.452,1.782-2.252,2.612l0,0l0,0c-0.586,0.602-1.192,1.177-1.823,1.729c0.017,0.03,0.037,0.062,0.058,0.092
			c2.865,0.98,5.85,1.69,8.929,2.106C131.721,94.509,131.59,94.383,131.461,94.255z"/>
		<path fill="#E7F4F5" d="M139.103,80.261c-0.117-0.649-0.227-1.304-0.321-1.962c-0.156-1.073-0.281-2.157-0.377-3.253
			c-0.065-0.744-0.116-1.491-0.151-2.244c-0.012-0.245-0.021-0.492-0.029-0.741c-0.001-0.011-0.001-0.021-0.001-0.032
			c-1.8-0.004-3.555-0.202-5.241-0.575c-0.008,0.18-0.018,0.358-0.028,0.537c-0.005,0.062-0.009,0.124-0.013,0.186
			c-0.001,0.015-0.002,0.028-0.003,0.042c-0.007,0.101-0.014,0.202-0.021,0.303c-0.006,0.079-0.014,0.155-0.021,0.232
			c-0.009,0.098-0.018,0.195-0.026,0.293c-0.008,0.087-0.018,0.173-0.027,0.26c-0.008,0.086-0.017,0.173-0.027,0.258
			c-0.011,0.094-0.022,0.189-0.034,0.284c-0.009,0.075-0.019,0.148-0.027,0.222c-0.015,0.104-0.028,0.208-0.044,0.313
			c-0.008,0.058-0.019,0.115-0.026,0.173c-0.018,0.118-0.036,0.238-0.055,0.355c-0.004,0.024-0.009,0.049-0.013,0.074
			c-0.235,1.439-0.577,2.845-1.014,4.207c-0.363,1.131-0.793,2.23-1.284,3.299c-0.731,1.587-1.6,3.102-2.592,4.521
			c-0.028,0.042-0.057,0.084-0.086,0.124c-0.131,0.187-0.264,0.373-0.399,0.556c1.32,0.307,2.696,0.468,4.107,0.468
			c0.21,0,0.419-0.003,0.628-0.011c0.046-0.002,0.09-0.005,0.135-0.007c0.165-0.009,0.328-0.016,0.49-0.026
			c0.04-0.003,0.079-0.008,0.12-0.01c0.168-0.013,0.336-0.026,0.503-0.045c0.03-0.002,0.06-0.007,0.09-0.011
			c0.177-0.018,0.354-0.039,0.528-0.063c0.02-0.003,0.038-0.005,0.057-0.009c0.187-0.026,0.373-0.055,0.557-0.088
			c0.01-0.001,0.019-0.002,0.029-0.004c0.193-0.034,0.386-0.07,0.577-0.111c0.005-0.001,0.008-0.001,0.013-0.003
			c0.195-0.041,0.391-0.086,0.584-0.133l0.007-0.003c0.194-0.048,0.387-0.099,0.577-0.15c0.002-0.002,0.004-0.002,0.006-0.002
			c0.014-0.005,0.027-0.009,0.041-0.013c0.145-0.04,0.287-0.082,0.431-0.127c0,0,0.001,0,0.002,0c0.029-0.01,0.06-0.02,0.09-0.029
			c0.229-0.073,0.457-0.151,0.682-0.233c0.071-0.025,0.144-0.051,0.212-0.076c0.092-0.034,0.182-0.07,0.273-0.106
			c0.079-0.031,0.159-0.063,0.236-0.095c0.085-0.036,0.169-0.073,0.254-0.109s0.171-0.073,0.255-0.109
			c0.077-0.036,0.155-0.071,0.232-0.107c0.093-0.042,0.183-0.087,0.274-0.131c0.069-0.034,0.14-0.068,0.21-0.104
			c0.103-0.052,0.206-0.104,0.309-0.16c0.056-0.029,0.112-0.057,0.167-0.086c0.158-0.086,0.314-0.175,0.471-0.265
			C139.87,83.943,139.442,82.117,139.103,80.261z"/>
		<path fill="#DEF1F6" d="M151.368,69.445c-0.003-0.092-0.008-0.181-0.012-0.271c-0.012-0.283-0.027-0.563-0.053-0.843
			c-0.631,0.396-1.28,0.76-1.942,1.094c-0.765,0.385-1.547,0.73-2.344,1.032c-1.109,0.426-2.248,0.767-3.407,1.021l-0.001,0.003
			v-0.001c-0.483,0.108-0.97,0.199-1.46,0.279c-0.174,0.272-0.343,0.549-0.511,0.828c-0.358,0.598-0.707,1.206-1.038,1.827
			c-0.682,1.276-1.285,2.573-1.819,3.883c0.095,0.658,0.204,1.312,0.321,1.962c0.34,1.856,0.768,3.683,1.284,5.473
			c0.105,0.367,0.217,0.73,0.329,1.094c0.111,0.353,0.225,0.702,0.34,1.053c0.045,0.136,0.089,0.274,0.135,0.411
			c0.191-0.117,0.38-0.237,0.568-0.359c5.8-3.797,9.628-10.346,9.624-17.793C151.383,69.907,151.375,69.676,151.368,69.445z"/>
		<path fill="#E1F3FC" d="M140.387,85.733c-0.156,0.09-0.312,0.179-0.471,0.265c-0.055,0.029-0.111,0.057-0.167,0.086
			c-0.103,0.056-0.206,0.108-0.309,0.16c-0.07,0.035-0.141,0.069-0.21,0.104c-0.092,0.044-0.182,0.089-0.274,0.131
			c-0.077,0.036-0.155,0.071-0.232,0.107c-0.084,0.036-0.17,0.073-0.255,0.109s-0.169,0.073-0.254,0.109
			c-0.077,0.031-0.157,0.063-0.236,0.095c-0.092,0.036-0.182,0.072-0.273,0.106c-0.068,0.025-0.141,0.051-0.212,0.076
			c-0.225,0.082-0.452,0.16-0.682,0.233c-0.03,0.01-0.061,0.02-0.09,0.029c-0.001,0-0.002,0-0.002,0
			c-0.144,0.046-0.286,0.087-0.431,0.127c-0.014,0.004-0.027,0.008-0.041,0.013c-0.002,0-0.004,0-0.006,0.002
			c-0.19,0.052-0.383,0.103-0.577,0.15c-0.001,0.001-0.005,0.001-0.007,0.003c-0.193,0.047-0.389,0.092-0.584,0.133
			c-0.005,0.002-0.008,0.002-0.013,0.003c-0.191,0.04-0.384,0.077-0.577,0.111c-0.011,0.002-0.02,0.003-0.029,0.004
			c-0.184,0.033-0.37,0.062-0.557,0.088c-0.019,0.004-0.037,0.006-0.057,0.009c-0.175,0.024-0.352,0.046-0.528,0.063
			c-0.03,0.004-0.06,0.009-0.09,0.011c-0.167,0.019-0.335,0.032-0.503,0.045c-0.041,0.002-0.08,0.007-0.12,0.01
			c-0.162,0.011-0.325,0.018-0.49,0.026c-0.045,0.002-0.089,0.005-0.135,0.007c-0.209,0.008-0.418,0.011-0.628,0.011
			c-1.411,0-2.787-0.161-4.107-0.468c-0.098,0.137-0.197,0.271-0.299,0.402c0.586,1.147,1.265,2.241,2.021,3.275l0,0l0,0
			c0.378,0.018,0.757,0.028,1.136,0.028h0.015c4.058,0,7.852-1.141,11.077-3.107c-0.165-0.486-0.321-0.975-0.475-1.464
			C140.603,86.464,140.492,86.101,140.387,85.733z"/>
		<path fill="#D9F0FC" d="M130.113,91.398h-0.015c-0.379,0-0.759-0.011-1.136-0.028c0.755,1.024,1.593,1.991,2.498,2.885
			c0.129,0.128,0.26,0.254,0.392,0.379c2.11,0.285,4.26,0.434,6.445,0.434h0.012c1.879-0.002,3.727-0.109,5.55-0.325
			c-1.018-2.08-1.911-4.236-2.669-6.451C137.965,90.258,134.171,91.398,130.113,91.398z"/>
		<path fill="#CDD6DD" d="M154.172,67.188c-0.376,0.306-0.762,0.602-1.156,0.886c-0.033,0.686-0.052,1.376-0.052,2.065
			c0.004,6.051,1.325,11.794,3.688,16.956c-1.656-5.358-2.549-11.053-2.555-16.956C154.098,69.15,154.123,68.166,154.172,67.188z"/>
		<path fill="#C9CDCF" d="M160.055,60.318c-0.841,1.442-1.821,2.794-2.924,4.037c-0.907,1.021-1.897,1.97-2.959,2.832
			c-0.049,0.979-0.074,1.963-0.074,2.951c0.006,5.903,0.898,11.598,2.555,16.956c0.188,0.407,0.384,0.809,0.585,1.209
			c0.132,0.266,0.266,0.531,0.402,0.795l0,0v0.002c0,0,0.038,0.067,0.037,0.066c0.069-0.176,0.158-0.458,0.243-0.714
			c0.894-2.654,1.598-5.392,2.097-8.207c0.58-3.278,0.882-6.656,0.882-10.107C160.896,66.789,160.607,63.511,160.055,60.318z"/>
		<path fill="#115E6A" d="M165.986,75.373c-0.311-1.699-0.478-3.451-0.478-5.238s0.162-3.536,0.474-5.235
			c-0.092-0.612-0.201-1.218-0.326-1.82c-0.208-1.015-0.461-2.01-0.756-2.989c-1.04-1.004-2.169-1.915-3.378-2.72
			c-0.425,1.019-0.917,2.002-1.468,2.948c0.553,3.192,0.842,6.471,0.844,9.82c0,3.452-0.302,6.829-0.882,10.107
			c-0.499,2.815-1.203,5.553-2.097,8.207c-0.078,0.24-0.158,0.479-0.243,0.714c0.252,0.48,0.519,0.955,0.791,1.425
			c0.673-0.315,1.339-0.646,1.997-0.993c2.48-3.697,4.273-7.888,5.196-12.4c-0.008-0.054-0.015-0.106-0.022-0.161
			c0.008,0.055,0.017,0.107,0.024,0.161C165.787,76.595,165.893,75.983,165.986,75.373z"/>
		<path fill="#006F95" d="M170.416,68.218c0.403,0.979,0.74,1.988,1.008,3.028c0.011-0.371,0.014-0.739,0.014-1.111
			c0-4.865-0.845-9.53-2.397-13.866c-0.603,1.103-1.133,2.241-1.59,3.421C168.738,62.382,169.74,65.237,170.416,68.218z"/>
		<path fill="#005E85" d="M165.982,64.899c-0.312,1.699-0.472,3.448-0.472,5.235s0.165,3.539,0.476,5.238
			c0.255-1.71,0.392-3.461,0.388-5.238C166.374,68.355,166.238,66.609,165.982,64.899z"/>
		<path fill="#0E6A64" d="M164.9,60.089c0.295,0.98,0.548,1.976,0.756,2.988c0.096-0.627,0.203-1.257,0.326-1.877
			C165.634,60.82,165.272,60.45,164.9,60.089z"/>
		<path fill="#006F71" d="M165.982,61.2L165.982,61.2c-0.123,0.62-0.23,1.25-0.326,1.879c0.125,0.603,0.234,1.208,0.326,1.82
			c0.18-0.984,0.409-1.954,0.687-2.905c-0.223-0.271-0.452-0.532-0.687-0.792C165.982,61.201,165.982,61.201,165.982,61.2z"/>
		<path fill="#006E7A" d="M169.008,56.178c-0.002-0.002-0.003-0.002-0.004-0.003c0,0,0,0,0.001,0
			c-0.287-0.798-0.599-1.583-0.933-2.358c-0.139,0.372-0.275,0.745-0.405,1.123l-0.001,0.003c-0.365,1.056-0.696,2.131-0.985,3.22
			c0.268,0.503,0.525,1.014,0.77,1.527c0.457-1.182,0.987-2.318,1.59-3.421C169.028,56.238,169.017,56.208,169.008,56.178z"/>
		<path fill="#006E65" d="M166.681,58.162c-0.265,0.998-0.498,2.014-0.698,3.038c0.234,0.262,0.464,0.523,0.687,0.794
			c0.229-0.784,0.49-1.555,0.781-2.305C167.206,59.176,166.948,58.665,166.681,58.162z"/>
		<path fill="#006E7C" d="M166.669,61.994c1.547,1.857,2.818,3.954,3.747,6.224c-0.676-2.98-1.678-5.836-2.966-8.528
			C167.159,60.441,166.897,61.211,166.669,61.994z"/>
		<path fill="#00709F" d="M171.28,73.801c0.072-0.847,0.122-1.696,0.144-2.555c-0.268-1.04-0.604-2.05-1.008-3.028
			C170.827,70.034,171.118,71.898,171.28,73.801z"/>
		<path fill="#D4EDF3" d="M157.237,88.304c-0.201-0.4-0.396-0.802-0.585-1.209c-2.363-5.162-3.685-10.905-3.688-16.956
			c0-0.689,0.019-1.38,0.052-2.065c-0.497,0.358-1.007,0.699-1.53,1.022c-0.038,0.113-0.076,0.228-0.115,0.343
			c0.008,0.233,0.013,0.467,0.013,0.7c0.006,7.447-3.824,13.996-9.624,17.793c-0.188,0.122-0.377,0.242-0.568,0.359
			c0.758,2.215,1.651,4.371,2.669,6.451c4.401-0.509,8.62-1.624,12.571-3.254c0.368-0.651,0.711-1.313,1.026-1.989
			c0.064-0.134,0.121-0.267,0.183-0.398C157.503,88.836,157.369,88.569,157.237,88.304z"/>
		<path fill="#008B9D" d="M169.061,56.23c-0.007,0.013-0.015,0.026-0.02,0.038c-0.001,0-0.001-0.001-0.001-0.001v0.001
			c1.553,4.336,2.397,9.001,2.397,13.866c0,0.372-0.002,0.74-0.014,1.111c-0.021,0.858-0.071,1.708-0.144,2.555
			c-0.305,3.437-1.027,6.76-2.123,9.902c0.688-0.586,1.354-1.186,2.008-1.811c0.232-0.221,0.466-0.448,0.693-0.677
			c2.164-2.156,4.124-4.514,5.841-7.052C176.973,67.174,173.805,60.91,169.061,56.23z"/>
	</g>
</g>
</svg>
