<?xml version="1.0" encoding="utf-8"?>
<!-- Generator: Adobe Illustrator 17.0.0, SVG Export Plug-In . SVG Version: 6.00 Build 0)  -->
<!DOCTYPE svg PUBLIC "-//W3C//DTD SVG 1.1//EN" "http://www.w3.org/Graphics/SVG/1.1/DTD/svg11.dtd">
<svg version="1.1" id="Layer_1" xmlns="http://www.w3.org/2000/svg" xmlns:xlink="http://www.w3.org/1999/xlink" x="0px" y="0px"
	 width="679.5px" height="630.5px" viewBox="-167.5 -118.5 679.5 630.5" enable-background="new -167.5 -118.5 679.5 630.5"
	 xml:space="preserve">
<path fill="#FFFFFF" d="M412.381,376.449L291.105,273.302c-12.537-11.283-25.945-16.463-36.776-15.963
	c28.628-33.534,45.921-77.039,45.921-124.588c0-106.039-85.961-192-192-192c-106.038,0-192,85.961-192,192s85.961,192,192,192
	c47.549,0,91.054-17.293,124.588-45.922c-0.5,10.831,4.68,24.239,15.963,36.776l103.147,121.276
	c17.661,19.623,46.511,21.277,64.11,3.678S432.004,394.11,412.381,376.449z M108.25,260.751c-70.692,0-128-57.308-128-128
	s57.308-128,128-128s128,57.308,128,128S178.943,260.751,108.25,260.751z"/>
</svg>
